<?xml version="1.0" encoding="utf-8"?>
<svg xmlns="http://www.w3.org/2000/svg" xmlns:xlink="http://www.w3.org/1999/xlink" width="600" height="400" viewBox="0 0 2400 1600">
<defs>
  <clipPath id="clip690">
    <rect x="0" y="0" width="2400" height="1600"/>
  </clipPath>
</defs>
<path clip-path="url(#clip690)" d="M0 1600 L2400 1600 L2400 8.88178e-14 L0 8.88178e-14  Z" fill="#ffffff" fill-rule="evenodd" fill-opacity="1"/>
<defs>
  <clipPath id="clip691">
    <rect x="480" y="0" width="1681" height="1600"/>
  </clipPath>
</defs>
<path clip-path="url(#clip690)" d="M219.38 1423.18 L2352.76 1423.18 L2352.76 123.472 L219.38 123.472  Z" fill="#ffffff" fill-rule="evenodd" fill-opacity="1"/>
<defs>
  <clipPath id="clip692">
    <rect x="219" y="123" width="2134" height="1301"/>
  </clipPath>
</defs>
<polyline clip-path="url(#clip692)" style="stroke:#000000; stroke-linecap:round; stroke-linejoin:round; stroke-width:2; stroke-opacity:0.1; fill:none" points="269.594,1423.18 269.594,123.472 "/>
<polyline clip-path="url(#clip692)" style="stroke:#000000; stroke-linecap:round; stroke-linejoin:round; stroke-width:2; stroke-opacity:0.1; fill:none" points="741.399,1423.18 741.399,123.472 "/>
<polyline clip-path="url(#clip692)" style="stroke:#000000; stroke-linecap:round; stroke-linejoin:round; stroke-width:2; stroke-opacity:0.1; fill:none" points="1213.2,1423.18 1213.2,123.472 "/>
<polyline clip-path="url(#clip692)" style="stroke:#000000; stroke-linecap:round; stroke-linejoin:round; stroke-width:2; stroke-opacity:0.1; fill:none" points="1685.01,1423.18 1685.01,123.472 "/>
<polyline clip-path="url(#clip692)" style="stroke:#000000; stroke-linecap:round; stroke-linejoin:round; stroke-width:2; stroke-opacity:0.1; fill:none" points="2156.82,1423.18 2156.82,123.472 "/>
<polyline clip-path="url(#clip692)" style="stroke:#000000; stroke-linecap:round; stroke-linejoin:round; stroke-width:2; stroke-opacity:0.1; fill:none" points="219.38,1386.4 2352.76,1386.4 "/>
<polyline clip-path="url(#clip692)" style="stroke:#000000; stroke-linecap:round; stroke-linejoin:round; stroke-width:2; stroke-opacity:0.1; fill:none" points="219.38,1168.95 2352.76,1168.95 "/>
<polyline clip-path="url(#clip692)" style="stroke:#000000; stroke-linecap:round; stroke-linejoin:round; stroke-width:2; stroke-opacity:0.1; fill:none" points="219.38,951.504 2352.76,951.504 "/>
<polyline clip-path="url(#clip692)" style="stroke:#000000; stroke-linecap:round; stroke-linejoin:round; stroke-width:2; stroke-opacity:0.1; fill:none" points="219.38,734.058 2352.76,734.058 "/>
<polyline clip-path="url(#clip692)" style="stroke:#000000; stroke-linecap:round; stroke-linejoin:round; stroke-width:2; stroke-opacity:0.1; fill:none" points="219.38,516.612 2352.76,516.612 "/>
<polyline clip-path="url(#clip692)" style="stroke:#000000; stroke-linecap:round; stroke-linejoin:round; stroke-width:2; stroke-opacity:0.1; fill:none" points="219.38,299.166 2352.76,299.166 "/>
<polyline clip-path="url(#clip690)" style="stroke:#000000; stroke-linecap:round; stroke-linejoin:round; stroke-width:4; stroke-opacity:1; fill:none" points="219.38,1423.18 2352.76,1423.18 "/>
<polyline clip-path="url(#clip690)" style="stroke:#000000; stroke-linecap:round; stroke-linejoin:round; stroke-width:4; stroke-opacity:1; fill:none" points="269.594,1423.18 269.594,1404.28 "/>
<polyline clip-path="url(#clip690)" style="stroke:#000000; stroke-linecap:round; stroke-linejoin:round; stroke-width:4; stroke-opacity:1; fill:none" points="741.399,1423.18 741.399,1404.28 "/>
<polyline clip-path="url(#clip690)" style="stroke:#000000; stroke-linecap:round; stroke-linejoin:round; stroke-width:4; stroke-opacity:1; fill:none" points="1213.2,1423.18 1213.2,1404.28 "/>
<polyline clip-path="url(#clip690)" style="stroke:#000000; stroke-linecap:round; stroke-linejoin:round; stroke-width:4; stroke-opacity:1; fill:none" points="1685.01,1423.18 1685.01,1404.28 "/>
<polyline clip-path="url(#clip690)" style="stroke:#000000; stroke-linecap:round; stroke-linejoin:round; stroke-width:4; stroke-opacity:1; fill:none" points="2156.82,1423.18 2156.82,1404.28 "/>
<path clip-path="url(#clip690)" d="M246.978 1454.1 Q243.367 1454.1 241.539 1457.66 Q239.733 1461.2 239.733 1468.33 Q239.733 1475.44 241.539 1479.01 Q243.367 1482.55 246.978 1482.55 Q250.613 1482.55 252.418 1479.01 Q254.247 1475.44 254.247 1468.33 Q254.247 1461.2 252.418 1457.66 Q250.613 1454.1 246.978 1454.1 M246.978 1450.39 Q252.789 1450.39 255.844 1455 Q258.923 1459.58 258.923 1468.33 Q258.923 1477.06 255.844 1481.67 Q252.789 1486.25 246.978 1486.25 Q241.168 1486.25 238.09 1481.67 Q235.034 1477.06 235.034 1468.33 Q235.034 1459.58 238.09 1455 Q241.168 1450.39 246.978 1450.39 Z" fill="#000000" fill-rule="nonzero" fill-opacity="1" /><path clip-path="url(#clip690)" d="M267.14 1479.7 L272.025 1479.7 L272.025 1485.58 L267.14 1485.58 L267.14 1479.7 Z" fill="#000000" fill-rule="nonzero" fill-opacity="1" /><path clip-path="url(#clip690)" d="M292.21 1454.1 Q288.599 1454.1 286.77 1457.66 Q284.964 1461.2 284.964 1468.33 Q284.964 1475.44 286.77 1479.01 Q288.599 1482.55 292.21 1482.55 Q295.844 1482.55 297.649 1479.01 Q299.478 1475.44 299.478 1468.33 Q299.478 1461.2 297.649 1457.66 Q295.844 1454.1 292.21 1454.1 M292.21 1450.39 Q298.02 1450.39 301.075 1455 Q304.154 1459.58 304.154 1468.33 Q304.154 1477.06 301.075 1481.67 Q298.02 1486.25 292.21 1486.25 Q286.399 1486.25 283.321 1481.67 Q280.265 1477.06 280.265 1468.33 Q280.265 1459.58 283.321 1455 Q286.399 1450.39 292.21 1450.39 Z" fill="#000000" fill-rule="nonzero" fill-opacity="1" /><path clip-path="url(#clip690)" d="M719.282 1454.1 Q715.67 1454.1 713.842 1457.66 Q712.036 1461.2 712.036 1468.33 Q712.036 1475.44 713.842 1479.01 Q715.67 1482.55 719.282 1482.55 Q722.916 1482.55 724.721 1479.01 Q726.55 1475.44 726.55 1468.33 Q726.55 1461.2 724.721 1457.66 Q722.916 1454.1 719.282 1454.1 M719.282 1450.39 Q725.092 1450.39 728.147 1455 Q731.226 1459.58 731.226 1468.33 Q731.226 1477.06 728.147 1481.67 Q725.092 1486.25 719.282 1486.25 Q713.471 1486.25 710.393 1481.67 Q707.337 1477.06 707.337 1468.33 Q707.337 1459.58 710.393 1455 Q713.471 1450.39 719.282 1450.39 Z" fill="#000000" fill-rule="nonzero" fill-opacity="1" /><path clip-path="url(#clip690)" d="M739.443 1479.7 L744.328 1479.7 L744.328 1485.58 L739.443 1485.58 L739.443 1479.7 Z" fill="#000000" fill-rule="nonzero" fill-opacity="1" /><path clip-path="url(#clip690)" d="M754.559 1451.02 L772.915 1451.02 L772.915 1454.96 L758.841 1454.96 L758.841 1463.43 Q759.86 1463.08 760.879 1462.92 Q761.897 1462.73 762.916 1462.73 Q768.703 1462.73 772.082 1465.9 Q775.462 1469.08 775.462 1474.49 Q775.462 1480.07 771.99 1483.17 Q768.517 1486.25 762.198 1486.25 Q760.022 1486.25 757.754 1485.88 Q755.508 1485.51 753.101 1484.77 L753.101 1480.07 Q755.184 1481.2 757.406 1481.76 Q759.629 1482.32 762.105 1482.32 Q766.11 1482.32 768.448 1480.21 Q770.786 1478.1 770.786 1474.49 Q770.786 1470.88 768.448 1468.77 Q766.11 1466.67 762.105 1466.67 Q760.23 1466.67 758.355 1467.08 Q756.504 1467.5 754.559 1468.38 L754.559 1451.02 Z" fill="#000000" fill-rule="nonzero" fill-opacity="1" /><path clip-path="url(#clip690)" d="M1180.36 1481.64 L1188 1481.64 L1188 1455.28 L1179.69 1456.95 L1179.69 1452.69 L1187.95 1451.02 L1192.63 1451.02 L1192.63 1481.64 L1200.27 1481.64 L1200.27 1485.58 L1180.36 1485.58 L1180.36 1481.64 Z" fill="#000000" fill-rule="nonzero" fill-opacity="1" /><path clip-path="url(#clip690)" d="M1209.71 1479.7 L1214.59 1479.7 L1214.59 1485.58 L1209.71 1485.58 L1209.71 1479.7 Z" fill="#000000" fill-rule="nonzero" fill-opacity="1" /><path clip-path="url(#clip690)" d="M1234.78 1454.1 Q1231.17 1454.1 1229.34 1457.66 Q1227.53 1461.2 1227.53 1468.33 Q1227.53 1475.44 1229.34 1479.01 Q1231.17 1482.55 1234.78 1482.55 Q1238.41 1482.55 1240.22 1479.01 Q1242.05 1475.44 1242.05 1468.33 Q1242.05 1461.2 1240.22 1457.66 Q1238.41 1454.1 1234.78 1454.1 M1234.78 1450.39 Q1240.59 1450.39 1243.64 1455 Q1246.72 1459.58 1246.72 1468.33 Q1246.72 1477.06 1243.64 1481.67 Q1240.59 1486.25 1234.78 1486.25 Q1228.97 1486.25 1225.89 1481.67 Q1222.83 1477.06 1222.83 1468.33 Q1222.83 1459.58 1225.89 1455 Q1228.97 1450.39 1234.78 1450.39 Z" fill="#000000" fill-rule="nonzero" fill-opacity="1" /><path clip-path="url(#clip690)" d="M1652.66 1481.64 L1660.3 1481.64 L1660.3 1455.28 L1651.99 1456.95 L1651.99 1452.69 L1660.25 1451.02 L1664.93 1451.02 L1664.93 1481.64 L1672.57 1481.64 L1672.57 1485.58 L1652.66 1485.58 L1652.66 1481.64 Z" fill="#000000" fill-rule="nonzero" fill-opacity="1" /><path clip-path="url(#clip690)" d="M1682.01 1479.7 L1686.9 1479.7 L1686.9 1485.58 L1682.01 1485.58 L1682.01 1479.7 Z" fill="#000000" fill-rule="nonzero" fill-opacity="1" /><path clip-path="url(#clip690)" d="M1697.13 1451.02 L1715.48 1451.02 L1715.48 1454.96 L1701.41 1454.96 L1701.41 1463.43 Q1702.43 1463.08 1703.45 1462.92 Q1704.47 1462.73 1705.48 1462.73 Q1711.27 1462.73 1714.65 1465.9 Q1718.03 1469.08 1718.03 1474.49 Q1718.03 1480.07 1714.56 1483.17 Q1711.09 1486.25 1704.77 1486.25 Q1702.59 1486.25 1700.32 1485.88 Q1698.08 1485.51 1695.67 1484.77 L1695.67 1480.07 Q1697.75 1481.2 1699.98 1481.76 Q1702.2 1482.32 1704.67 1482.32 Q1708.68 1482.32 1711.02 1480.21 Q1713.36 1478.1 1713.36 1474.49 Q1713.36 1470.88 1711.02 1468.77 Q1708.68 1466.67 1704.67 1466.67 Q1702.8 1466.67 1700.92 1467.08 Q1699.07 1467.5 1697.13 1468.38 L1697.13 1451.02 Z" fill="#000000" fill-rule="nonzero" fill-opacity="1" /><path clip-path="url(#clip690)" d="M2128.05 1481.64 L2144.37 1481.64 L2144.37 1485.58 L2122.43 1485.58 L2122.43 1481.64 Q2125.09 1478.89 2129.67 1474.26 Q2134.28 1469.61 2135.46 1468.27 Q2137.71 1465.74 2138.59 1464.01 Q2139.49 1462.25 2139.49 1460.56 Q2139.49 1457.8 2137.55 1456.07 Q2135.62 1454.33 2132.52 1454.33 Q2130.32 1454.33 2127.87 1455.09 Q2125.44 1455.86 2122.66 1457.41 L2122.66 1452.69 Q2125.48 1451.55 2127.94 1450.97 Q2130.39 1450.39 2132.43 1450.39 Q2137.8 1450.39 2140.99 1453.08 Q2144.19 1455.77 2144.19 1460.26 Q2144.19 1462.39 2143.38 1464.31 Q2142.59 1466.2 2140.48 1468.8 Q2139.91 1469.47 2136.8 1472.69 Q2133.7 1475.88 2128.05 1481.64 Z" fill="#000000" fill-rule="nonzero" fill-opacity="1" /><path clip-path="url(#clip690)" d="M2154.19 1479.7 L2159.07 1479.7 L2159.07 1485.58 L2154.19 1485.58 L2154.19 1479.7 Z" fill="#000000" fill-rule="nonzero" fill-opacity="1" /><path clip-path="url(#clip690)" d="M2179.26 1454.1 Q2175.65 1454.1 2173.82 1457.66 Q2172.01 1461.2 2172.01 1468.33 Q2172.01 1475.44 2173.82 1479.01 Q2175.65 1482.55 2179.26 1482.55 Q2182.89 1482.55 2184.7 1479.01 Q2186.53 1475.44 2186.53 1468.33 Q2186.53 1461.2 2184.7 1457.66 Q2182.89 1454.1 2179.26 1454.1 M2179.26 1450.39 Q2185.07 1450.39 2188.12 1455 Q2191.2 1459.58 2191.2 1468.33 Q2191.2 1477.06 2188.12 1481.67 Q2185.07 1486.25 2179.26 1486.25 Q2173.45 1486.25 2170.37 1481.67 Q2167.31 1477.06 2167.31 1468.33 Q2167.31 1459.58 2170.37 1455 Q2173.45 1450.39 2179.26 1450.39 Z" fill="#000000" fill-rule="nonzero" fill-opacity="1" /><path clip-path="url(#clip690)" d="M1125.41 1537.87 Q1124.43 1537.3 1123.25 1537.04 Q1122.1 1536.76 1120.7 1536.76 Q1115.74 1536.76 1113.06 1540 Q1110.42 1543.22 1110.42 1549.27 L1110.42 1568.04 L1104.53 1568.04 L1104.53 1532.4 L1110.42 1532.4 L1110.42 1537.93 Q1112.27 1534.69 1115.23 1533.13 Q1118.19 1531.54 1122.42 1531.54 Q1123.03 1531.54 1123.76 1531.63 Q1124.49 1531.7 1125.38 1531.85 L1125.41 1537.87 Z" fill="#000000" fill-rule="nonzero" fill-opacity="1" /><path clip-path="url(#clip690)" d="M1166.35 1518.58 Q1162.08 1525.9 1160.01 1533.06 Q1157.94 1540.23 1157.94 1547.58 Q1157.94 1554.93 1160.01 1562.16 Q1162.11 1569.35 1166.35 1576.64 L1161.25 1576.64 Q1156.48 1569.16 1154.09 1561.93 Q1151.74 1554.71 1151.74 1547.58 Q1151.74 1540.48 1154.09 1533.29 Q1156.45 1526.09 1161.25 1518.58 L1166.35 1518.58 Z" fill="#000000" fill-rule="nonzero" fill-opacity="1" /><path clip-path="url(#clip690)" d="M1201.17 1537.81 L1201.17 1518.52 L1207.02 1518.52 L1207.02 1568.04 L1201.17 1568.04 L1201.17 1562.7 Q1199.32 1565.88 1196.49 1567.44 Q1193.69 1568.97 1189.74 1568.97 Q1183.28 1568.97 1179.2 1563.81 Q1175.16 1558.65 1175.16 1550.25 Q1175.16 1541.85 1179.2 1536.69 Q1183.28 1531.54 1189.74 1531.54 Q1193.69 1531.54 1196.49 1533.1 Q1199.32 1534.62 1201.17 1537.81 M1181.21 1550.25 Q1181.21 1556.71 1183.85 1560.4 Q1186.52 1564.07 1191.17 1564.07 Q1195.82 1564.07 1198.49 1560.4 Q1201.17 1556.71 1201.17 1550.25 Q1201.17 1543.79 1198.49 1540.13 Q1195.82 1536.44 1191.17 1536.44 Q1186.52 1536.44 1183.85 1540.13 Q1181.21 1543.79 1181.21 1550.25 Z" fill="#000000" fill-rule="nonzero" fill-opacity="1" /><path clip-path="url(#clip690)" d="M1219.08 1532.4 L1224.94 1532.4 L1224.94 1568.04 L1219.08 1568.04 L1219.08 1532.4 M1219.08 1518.52 L1224.94 1518.52 L1224.94 1525.93 L1219.08 1525.93 L1219.08 1518.52 Z" fill="#000000" fill-rule="nonzero" fill-opacity="1" /><path clip-path="url(#clip690)" d="M1259.92 1533.45 L1259.92 1538.98 Q1257.44 1537.71 1254.76 1537.07 Q1252.09 1536.44 1249.23 1536.44 Q1244.87 1536.44 1242.67 1537.77 Q1240.51 1539.11 1240.51 1541.79 Q1240.51 1543.82 1242.07 1545 Q1243.62 1546.15 1248.34 1547.2 L1250.34 1547.64 Q1256.58 1548.98 1259.19 1551.43 Q1261.83 1553.85 1261.83 1558.21 Q1261.83 1563.17 1257.88 1566.07 Q1253.97 1568.97 1247.09 1568.97 Q1244.23 1568.97 1241.11 1568.39 Q1238.02 1567.85 1234.59 1566.74 L1234.59 1560.69 Q1237.83 1562.38 1240.98 1563.24 Q1244.13 1564.07 1247.22 1564.07 Q1251.36 1564.07 1253.59 1562.66 Q1255.82 1561.23 1255.82 1558.65 Q1255.82 1556.27 1254.19 1554.99 Q1252.6 1553.72 1247.16 1552.54 L1245.12 1552.07 Q1239.68 1550.92 1237.26 1548.56 Q1234.84 1546.18 1234.84 1542.04 Q1234.84 1537.01 1238.4 1534.27 Q1241.97 1531.54 1248.53 1531.54 Q1251.77 1531.54 1254.64 1532.01 Q1257.5 1532.49 1259.92 1533.45 Z" fill="#000000" fill-rule="nonzero" fill-opacity="1" /><path clip-path="url(#clip690)" d="M1276.95 1522.27 L1276.95 1532.4 L1289.01 1532.4 L1289.01 1536.95 L1276.95 1536.95 L1276.95 1556.3 Q1276.95 1560.66 1278.13 1561.9 Q1279.34 1563.14 1283 1563.14 L1289.01 1563.14 L1289.01 1568.04 L1283 1568.04 Q1276.22 1568.04 1273.64 1565.53 Q1271.06 1562.98 1271.06 1556.3 L1271.06 1536.95 L1266.76 1536.95 L1266.76 1532.4 L1271.06 1532.4 L1271.06 1522.27 L1276.95 1522.27 Z" fill="#000000" fill-rule="nonzero" fill-opacity="1" /><path clip-path="url(#clip690)" d="M1312.92 1550.12 Q1305.82 1550.12 1303.08 1551.75 Q1300.34 1553.37 1300.34 1557.29 Q1300.34 1560.4 1302.38 1562.25 Q1304.45 1564.07 1307.98 1564.07 Q1312.85 1564.07 1315.78 1560.63 Q1318.74 1557.16 1318.74 1551.43 L1318.74 1550.12 L1312.92 1550.12 M1324.6 1547.71 L1324.6 1568.04 L1318.74 1568.04 L1318.74 1562.63 Q1316.73 1565.88 1313.74 1567.44 Q1310.75 1568.97 1306.42 1568.97 Q1300.95 1568.97 1297.7 1565.91 Q1294.49 1562.82 1294.49 1557.67 Q1294.49 1551.65 1298.5 1548.6 Q1302.54 1545.54 1310.53 1545.54 L1318.74 1545.54 L1318.74 1544.97 Q1318.74 1540.93 1316.07 1538.73 Q1313.42 1536.5 1308.62 1536.5 Q1305.56 1536.5 1302.67 1537.23 Q1299.77 1537.97 1297.1 1539.43 L1297.1 1534.02 Q1300.31 1532.78 1303.34 1532.17 Q1306.36 1531.54 1309.22 1531.54 Q1316.96 1531.54 1320.78 1535.55 Q1324.6 1539.56 1324.6 1547.71 Z" fill="#000000" fill-rule="nonzero" fill-opacity="1" /><path clip-path="url(#clip690)" d="M1366.29 1546.53 L1366.29 1568.04 L1360.44 1568.04 L1360.44 1546.72 Q1360.44 1541.66 1358.46 1539.14 Q1356.49 1536.63 1352.54 1536.63 Q1347.8 1536.63 1345.06 1539.65 Q1342.32 1542.68 1342.32 1547.9 L1342.32 1568.04 L1336.44 1568.04 L1336.44 1532.4 L1342.32 1532.4 L1342.32 1537.93 Q1344.43 1534.72 1347.26 1533.13 Q1350.12 1531.54 1353.85 1531.54 Q1359.99 1531.54 1363.14 1535.36 Q1366.29 1539.14 1366.29 1546.53 Z" fill="#000000" fill-rule="nonzero" fill-opacity="1" /><path clip-path="url(#clip690)" d="M1403.63 1533.76 L1403.63 1539.24 Q1401.14 1537.87 1398.63 1537.2 Q1396.15 1536.5 1393.6 1536.5 Q1387.9 1536.5 1384.75 1540.13 Q1381.6 1543.73 1381.6 1550.25 Q1381.6 1556.78 1384.75 1560.4 Q1387.9 1564 1393.6 1564 Q1396.15 1564 1398.63 1563.33 Q1401.14 1562.63 1403.63 1561.26 L1403.63 1566.68 Q1401.18 1567.82 1398.53 1568.39 Q1395.92 1568.97 1392.96 1568.97 Q1384.91 1568.97 1380.17 1563.91 Q1375.43 1558.85 1375.43 1550.25 Q1375.43 1541.53 1380.2 1536.53 Q1385.01 1531.54 1393.35 1531.54 Q1396.05 1531.54 1398.63 1532.11 Q1401.21 1532.65 1403.63 1533.76 Z" fill="#000000" fill-rule="nonzero" fill-opacity="1" /><path clip-path="url(#clip690)" d="M1444.3 1548.76 L1444.3 1551.62 L1417.38 1551.62 Q1417.76 1557.67 1421.01 1560.85 Q1424.28 1564 1430.11 1564 Q1433.48 1564 1436.63 1563.17 Q1439.82 1562.35 1442.93 1560.69 L1442.93 1566.23 Q1439.78 1567.57 1436.47 1568.27 Q1433.16 1568.97 1429.76 1568.97 Q1421.23 1568.97 1416.23 1564 Q1411.27 1559.04 1411.27 1550.57 Q1411.27 1541.82 1415.98 1536.69 Q1420.72 1531.54 1428.74 1531.54 Q1435.93 1531.54 1440.1 1536.18 Q1444.3 1540.8 1444.3 1548.76 M1438.45 1547.04 Q1438.38 1542.23 1435.74 1539.37 Q1433.13 1536.5 1428.8 1536.5 Q1423.9 1536.5 1420.94 1539.27 Q1418.01 1542.04 1417.57 1547.07 L1438.45 1547.04 Z" fill="#000000" fill-rule="nonzero" fill-opacity="1" /><path clip-path="url(#clip690)" d="M1452.99 1518.58 L1458.09 1518.58 Q1462.86 1526.09 1465.21 1533.29 Q1467.6 1540.48 1467.6 1547.58 Q1467.6 1554.71 1465.21 1561.93 Q1462.86 1569.16 1458.09 1576.64 L1452.99 1576.64 Q1457.23 1569.35 1459.29 1562.16 Q1461.4 1554.93 1461.4 1547.58 Q1461.4 1540.23 1459.29 1533.06 Q1457.23 1525.9 1452.99 1518.58 Z" fill="#000000" fill-rule="nonzero" fill-opacity="1" /><polyline clip-path="url(#clip690)" style="stroke:#000000; stroke-linecap:round; stroke-linejoin:round; stroke-width:4; stroke-opacity:1; fill:none" points="219.38,1423.18 219.38,123.472 "/>
<polyline clip-path="url(#clip690)" style="stroke:#000000; stroke-linecap:round; stroke-linejoin:round; stroke-width:4; stroke-opacity:1; fill:none" points="219.38,1386.4 238.278,1386.4 "/>
<polyline clip-path="url(#clip690)" style="stroke:#000000; stroke-linecap:round; stroke-linejoin:round; stroke-width:4; stroke-opacity:1; fill:none" points="219.38,1168.95 238.278,1168.95 "/>
<polyline clip-path="url(#clip690)" style="stroke:#000000; stroke-linecap:round; stroke-linejoin:round; stroke-width:4; stroke-opacity:1; fill:none" points="219.38,951.504 238.278,951.504 "/>
<polyline clip-path="url(#clip690)" style="stroke:#000000; stroke-linecap:round; stroke-linejoin:round; stroke-width:4; stroke-opacity:1; fill:none" points="219.38,734.058 238.278,734.058 "/>
<polyline clip-path="url(#clip690)" style="stroke:#000000; stroke-linecap:round; stroke-linejoin:round; stroke-width:4; stroke-opacity:1; fill:none" points="219.38,516.612 238.278,516.612 "/>
<polyline clip-path="url(#clip690)" style="stroke:#000000; stroke-linecap:round; stroke-linejoin:round; stroke-width:4; stroke-opacity:1; fill:none" points="219.38,299.166 238.278,299.166 "/>
<path clip-path="url(#clip690)" d="M126.205 1372.19 Q122.593 1372.19 120.765 1375.76 Q118.959 1379.3 118.959 1386.43 Q118.959 1393.54 120.765 1397.1 Q122.593 1400.64 126.205 1400.64 Q129.839 1400.64 131.644 1397.1 Q133.473 1393.54 133.473 1386.43 Q133.473 1379.3 131.644 1375.76 Q129.839 1372.19 126.205 1372.19 M126.205 1368.49 Q132.015 1368.49 135.07 1373.1 Q138.149 1377.68 138.149 1386.43 Q138.149 1395.16 135.07 1399.76 Q132.015 1404.35 126.205 1404.35 Q120.394 1404.35 117.316 1399.76 Q114.26 1395.16 114.26 1386.43 Q114.26 1377.68 117.316 1373.1 Q120.394 1368.49 126.205 1368.49 Z" fill="#000000" fill-rule="nonzero" fill-opacity="1" /><path clip-path="url(#clip690)" d="M146.366 1397.8 L151.251 1397.8 L151.251 1403.68 L146.366 1403.68 L146.366 1397.8 Z" fill="#000000" fill-rule="nonzero" fill-opacity="1" /><path clip-path="url(#clip690)" d="M171.436 1372.19 Q167.825 1372.19 165.996 1375.76 Q164.19 1379.3 164.19 1386.43 Q164.19 1393.54 165.996 1397.1 Q167.825 1400.64 171.436 1400.64 Q175.07 1400.64 176.876 1397.1 Q178.704 1393.54 178.704 1386.43 Q178.704 1379.3 176.876 1375.76 Q175.07 1372.19 171.436 1372.19 M171.436 1368.49 Q177.246 1368.49 180.301 1373.1 Q183.38 1377.68 183.38 1386.43 Q183.38 1395.16 180.301 1399.76 Q177.246 1404.35 171.436 1404.35 Q165.626 1404.35 162.547 1399.76 Q159.491 1395.16 159.491 1386.43 Q159.491 1377.68 162.547 1373.1 Q165.626 1368.49 171.436 1368.49 Z" fill="#000000" fill-rule="nonzero" fill-opacity="1" /><path clip-path="url(#clip690)" d="M127.2 1154.75 Q123.589 1154.75 121.76 1158.31 Q119.955 1161.85 119.955 1168.98 Q119.955 1176.09 121.76 1179.66 Q123.589 1183.2 127.2 1183.2 Q130.834 1183.2 132.64 1179.66 Q134.468 1176.09 134.468 1168.98 Q134.468 1161.85 132.64 1158.31 Q130.834 1154.75 127.2 1154.75 M127.2 1151.04 Q133.01 1151.04 136.066 1155.65 Q139.144 1160.23 139.144 1168.98 Q139.144 1177.71 136.066 1182.32 Q133.01 1186.9 127.2 1186.9 Q121.39 1186.9 118.311 1182.32 Q115.256 1177.71 115.256 1168.98 Q115.256 1160.23 118.311 1155.65 Q121.39 1151.04 127.2 1151.04 Z" fill="#000000" fill-rule="nonzero" fill-opacity="1" /><path clip-path="url(#clip690)" d="M147.362 1180.35 L152.246 1180.35 L152.246 1186.23 L147.362 1186.23 L147.362 1180.35 Z" fill="#000000" fill-rule="nonzero" fill-opacity="1" /><path clip-path="url(#clip690)" d="M162.477 1151.67 L180.834 1151.67 L180.834 1155.6 L166.76 1155.6 L166.76 1164.08 Q167.778 1163.73 168.797 1163.57 Q169.815 1163.38 170.834 1163.38 Q176.621 1163.38 180.001 1166.55 Q183.38 1169.73 183.38 1175.14 Q183.38 1180.72 179.908 1183.82 Q176.436 1186.9 170.116 1186.9 Q167.94 1186.9 165.672 1186.53 Q163.427 1186.16 161.019 1185.42 L161.019 1180.72 Q163.102 1181.85 165.325 1182.41 Q167.547 1182.97 170.024 1182.97 Q174.028 1182.97 176.366 1180.86 Q178.704 1178.75 178.704 1175.14 Q178.704 1171.53 176.366 1169.42 Q174.028 1167.32 170.024 1167.32 Q168.149 1167.32 166.274 1167.73 Q164.422 1168.15 162.477 1169.03 L162.477 1151.67 Z" fill="#000000" fill-rule="nonzero" fill-opacity="1" /><path clip-path="url(#clip690)" d="M117.015 964.849 L124.654 964.849 L124.654 938.483 L116.343 940.15 L116.343 935.89 L124.607 934.224 L129.283 934.224 L129.283 964.849 L136.922 964.849 L136.922 968.784 L117.015 968.784 L117.015 964.849 Z" fill="#000000" fill-rule="nonzero" fill-opacity="1" /><path clip-path="url(#clip690)" d="M146.366 962.904 L151.251 962.904 L151.251 968.784 L146.366 968.784 L146.366 962.904 Z" fill="#000000" fill-rule="nonzero" fill-opacity="1" /><path clip-path="url(#clip690)" d="M171.436 937.302 Q167.825 937.302 165.996 940.867 Q164.19 944.409 164.19 951.538 Q164.19 958.645 165.996 962.21 Q167.825 965.751 171.436 965.751 Q175.07 965.751 176.876 962.21 Q178.704 958.645 178.704 951.538 Q178.704 944.409 176.876 940.867 Q175.07 937.302 171.436 937.302 M171.436 933.599 Q177.246 933.599 180.301 938.205 Q183.38 942.788 183.38 951.538 Q183.38 960.265 180.301 964.872 Q177.246 969.455 171.436 969.455 Q165.626 969.455 162.547 964.872 Q159.491 960.265 159.491 951.538 Q159.491 942.788 162.547 938.205 Q165.626 933.599 171.436 933.599 Z" fill="#000000" fill-rule="nonzero" fill-opacity="1" /><path clip-path="url(#clip690)" d="M118.01 747.403 L125.649 747.403 L125.649 721.037 L117.339 722.704 L117.339 718.444 L125.603 716.778 L130.279 716.778 L130.279 747.403 L137.917 747.403 L137.917 751.338 L118.01 751.338 L118.01 747.403 Z" fill="#000000" fill-rule="nonzero" fill-opacity="1" /><path clip-path="url(#clip690)" d="M147.362 745.458 L152.246 745.458 L152.246 751.338 L147.362 751.338 L147.362 745.458 Z" fill="#000000" fill-rule="nonzero" fill-opacity="1" /><path clip-path="url(#clip690)" d="M162.477 716.778 L180.834 716.778 L180.834 720.713 L166.76 720.713 L166.76 729.185 Q167.778 728.838 168.797 728.676 Q169.815 728.491 170.834 728.491 Q176.621 728.491 180.001 731.662 Q183.38 734.833 183.38 740.25 Q183.38 745.828 179.908 748.93 Q176.436 752.009 170.116 752.009 Q167.94 752.009 165.672 751.639 Q163.427 751.268 161.019 750.528 L161.019 745.828 Q163.102 746.963 165.325 747.518 Q167.547 748.074 170.024 748.074 Q174.028 748.074 176.366 745.967 Q178.704 743.861 178.704 740.25 Q178.704 736.639 176.366 734.532 Q174.028 732.426 170.024 732.426 Q168.149 732.426 166.274 732.842 Q164.422 733.259 162.477 734.139 L162.477 716.778 Z" fill="#000000" fill-rule="nonzero" fill-opacity="1" /><path clip-path="url(#clip690)" d="M120.232 529.957 L136.552 529.957 L136.552 533.892 L114.607 533.892 L114.607 529.957 Q117.269 527.202 121.853 522.572 Q126.459 517.92 127.64 516.577 Q129.885 514.054 130.765 512.318 Q131.667 510.559 131.667 508.869 Q131.667 506.114 129.723 504.378 Q127.802 502.642 124.7 502.642 Q122.501 502.642 120.047 503.406 Q117.617 504.17 114.839 505.721 L114.839 500.998 Q117.663 499.864 120.117 499.285 Q122.57 498.707 124.607 498.707 Q129.978 498.707 133.172 501.392 Q136.367 504.077 136.367 508.568 Q136.367 510.697 135.556 512.619 Q134.769 514.517 132.663 517.109 Q132.084 517.781 128.982 520.998 Q125.88 524.193 120.232 529.957 Z" fill="#000000" fill-rule="nonzero" fill-opacity="1" /><path clip-path="url(#clip690)" d="M146.366 528.012 L151.251 528.012 L151.251 533.892 L146.366 533.892 L146.366 528.012 Z" fill="#000000" fill-rule="nonzero" fill-opacity="1" /><path clip-path="url(#clip690)" d="M171.436 502.41 Q167.825 502.41 165.996 505.975 Q164.19 509.517 164.19 516.646 Q164.19 523.753 165.996 527.318 Q167.825 530.859 171.436 530.859 Q175.07 530.859 176.876 527.318 Q178.704 523.753 178.704 516.646 Q178.704 509.517 176.876 505.975 Q175.07 502.41 171.436 502.41 M171.436 498.707 Q177.246 498.707 180.301 503.313 Q183.38 507.896 183.38 516.646 Q183.38 525.373 180.301 529.98 Q177.246 534.563 171.436 534.563 Q165.626 534.563 162.547 529.98 Q159.491 525.373 159.491 516.646 Q159.491 507.896 162.547 503.313 Q165.626 498.707 171.436 498.707 Z" fill="#000000" fill-rule="nonzero" fill-opacity="1" /><path clip-path="url(#clip690)" d="M121.228 312.511 L137.547 312.511 L137.547 316.446 L115.603 316.446 L115.603 312.511 Q118.265 309.756 122.848 305.126 Q127.455 300.474 128.635 299.131 Q130.88 296.608 131.76 294.872 Q132.663 293.113 132.663 291.423 Q132.663 288.668 130.718 286.932 Q128.797 285.196 125.695 285.196 Q123.496 285.196 121.043 285.96 Q118.612 286.724 115.834 288.275 L115.834 283.552 Q118.658 282.418 121.112 281.839 Q123.566 281.261 125.603 281.261 Q130.973 281.261 134.167 283.946 Q137.362 286.631 137.362 291.122 Q137.362 293.251 136.552 295.173 Q135.765 297.071 133.658 299.663 Q133.08 300.335 129.978 303.552 Q126.876 306.747 121.228 312.511 Z" fill="#000000" fill-rule="nonzero" fill-opacity="1" /><path clip-path="url(#clip690)" d="M147.362 310.566 L152.246 310.566 L152.246 316.446 L147.362 316.446 L147.362 310.566 Z" fill="#000000" fill-rule="nonzero" fill-opacity="1" /><path clip-path="url(#clip690)" d="M162.477 281.886 L180.834 281.886 L180.834 285.821 L166.76 285.821 L166.76 294.293 Q167.778 293.946 168.797 293.784 Q169.815 293.599 170.834 293.599 Q176.621 293.599 180.001 296.77 Q183.38 299.941 183.38 305.358 Q183.38 310.937 179.908 314.038 Q176.436 317.117 170.116 317.117 Q167.94 317.117 165.672 316.747 Q163.427 316.376 161.019 315.636 L161.019 310.937 Q163.102 312.071 165.325 312.626 Q167.547 313.182 170.024 313.182 Q174.028 313.182 176.366 311.075 Q178.704 308.969 178.704 305.358 Q178.704 301.747 176.366 299.64 Q174.028 297.534 170.024 297.534 Q168.149 297.534 166.274 297.95 Q164.422 298.367 162.477 299.247 L162.477 281.886 Z" fill="#000000" fill-rule="nonzero" fill-opacity="1" /><path clip-path="url(#clip690)" d="M45.7664 802.242 Q39.4007 802.242 35.8996 804.884 Q32.3984 807.494 32.3984 812.236 Q32.3984 816.947 35.8996 819.589 Q39.4007 822.199 45.7664 822.199 Q52.1003 822.199 55.6014 819.589 Q59.1026 816.947 59.1026 812.236 Q59.1026 807.494 55.6014 804.884 Q52.1003 802.242 45.7664 802.242 M59.58 796.386 Q68.683 796.386 73.1071 800.428 Q77.5631 804.47 77.5631 812.809 Q77.5631 815.897 77.0857 818.634 Q76.6401 821.371 75.6852 823.949 L69.9879 823.949 Q71.3884 821.371 72.0568 818.857 Q72.7252 816.342 72.7252 813.732 Q72.7252 807.971 69.7015 805.107 Q66.7096 802.242 60.6303 802.242 L57.7339 802.242 Q60.885 804.056 62.4446 806.889 Q64.0042 809.722 64.0042 813.669 Q64.0042 820.225 59.0071 824.236 Q54.01 828.246 45.7664 828.246 Q37.491 828.246 32.4939 824.236 Q27.4968 820.225 27.4968 813.669 Q27.4968 809.722 29.0564 806.889 Q30.616 804.056 33.7671 802.242 L28.3562 802.242 L28.3562 796.386 L59.58 796.386 Z" fill="#000000" fill-rule="nonzero" fill-opacity="1" /><path clip-path="url(#clip690)" d="M14.5426 770.255 Q21.8632 774.52 29.0246 776.588 Q36.186 778.657 43.5384 778.657 Q50.8908 778.657 58.1159 776.588 Q65.3091 774.488 72.5979 770.255 L72.5979 775.347 Q65.1182 780.121 57.8931 782.509 Q50.668 784.864 43.5384 784.864 Q36.4406 784.864 29.2474 782.509 Q22.0542 780.153 14.5426 775.347 L14.5426 770.255 Z" fill="#000000" fill-rule="nonzero" fill-opacity="1" /><path clip-path="url(#clip690)" d="M33.8307 738.235 Q33.2578 739.222 33.0032 740.399 Q32.7167 741.545 32.7167 742.946 Q32.7167 747.911 35.9632 750.584 Q39.1779 753.226 45.2253 753.226 L64.0042 753.226 L64.0042 759.115 L28.3562 759.115 L28.3562 753.226 L33.8944 753.226 Q30.6479 751.38 29.0883 748.42 Q27.4968 745.46 27.4968 741.227 Q27.4968 740.622 27.5923 739.89 Q27.656 739.158 27.8151 738.267 L33.8307 738.235 Z" fill="#000000" fill-rule="nonzero" fill-opacity="1" /><path clip-path="url(#clip690)" d="M14.5426 733.015 L14.5426 727.923 Q22.0542 723.148 29.2474 720.793 Q36.4406 718.406 43.5384 718.406 Q50.668 718.406 57.8931 720.793 Q65.1182 723.148 72.5979 727.923 L72.5979 733.015 Q65.3091 728.782 58.1159 726.713 Q50.8908 724.612 43.5384 724.612 Q36.186 724.612 29.0246 726.713 Q21.8632 728.782 14.5426 733.015 Z" fill="#000000" fill-rule="nonzero" fill-opacity="1" /><path clip-path="url(#clip690)" d="M749.404 44.2197 Q752.037 45.1109 754.508 48.0275 Q757.02 50.9442 759.532 56.0483 L767.836 72.576 L759.045 72.576 L751.308 57.061 Q748.31 50.9847 745.475 48.9997 Q742.68 47.0148 737.819 47.0148 L728.907 47.0148 L728.907 72.576 L720.724 72.576 L720.724 12.096 L739.196 12.096 Q749.566 12.096 754.67 16.4305 Q759.775 20.7649 759.775 29.5149 Q759.775 35.2267 757.101 38.994 Q754.468 42.7613 749.404 44.2197 M728.907 18.8205 L728.907 40.2903 L739.196 40.2903 Q745.11 40.2903 748.108 37.5762 Q751.146 34.8216 751.146 29.5149 Q751.146 24.2082 748.108 21.5346 Q745.11 18.8205 739.196 18.8205 L728.907 18.8205 Z" fill="#000000" fill-rule="nonzero" fill-opacity="1" /><path clip-path="url(#clip690)" d="M796.84 49.7694 Q787.807 49.7694 784.323 51.8354 Q780.839 53.9013 780.839 58.8839 Q780.839 62.8538 783.432 65.2034 Q786.065 67.5124 790.561 67.5124 Q796.759 67.5124 800.486 63.1374 Q804.253 58.7219 804.253 51.4303 L804.253 49.7694 L796.84 49.7694 M811.707 46.6907 L811.707 72.576 L804.253 72.576 L804.253 65.6895 Q801.701 69.8214 797.894 71.8063 Q794.086 73.7508 788.576 73.7508 Q781.609 73.7508 777.477 69.8619 Q773.386 65.9325 773.386 59.3701 Q773.386 51.7138 778.49 47.825 Q783.634 43.9361 793.802 43.9361 L804.253 43.9361 L804.253 43.2069 Q804.253 38.0623 800.851 35.2672 Q797.488 32.4315 791.372 32.4315 Q787.483 32.4315 783.796 33.3632 Q780.11 34.295 776.707 36.1584 L776.707 29.2718 Q780.799 27.692 784.647 26.9223 Q788.495 26.1121 792.141 26.1121 Q801.985 26.1121 806.846 31.2163 Q811.707 36.3204 811.707 46.6907 Z" fill="#000000" fill-rule="nonzero" fill-opacity="1" /><path clip-path="url(#clip690)" d="M856.915 34.0924 L856.915 9.54393 L864.369 9.54393 L864.369 72.576 L856.915 72.576 L856.915 65.7705 Q854.566 69.8214 850.96 71.8063 Q847.396 73.7508 842.372 73.7508 Q834.149 73.7508 828.964 67.1883 Q823.819 60.6258 823.819 49.9314 Q823.819 39.2371 828.964 32.6746 Q834.149 26.1121 842.372 26.1121 Q847.396 26.1121 850.96 28.0971 Q854.566 30.0415 856.915 34.0924 M831.516 49.9314 Q831.516 58.1548 834.878 62.8538 Q838.281 67.5124 844.195 67.5124 Q850.11 67.5124 853.512 62.8538 Q856.915 58.1548 856.915 49.9314 Q856.915 41.7081 853.512 37.0496 Q850.11 32.3505 844.195 32.3505 Q838.281 32.3505 834.878 37.0496 Q831.516 41.7081 831.516 49.9314 Z" fill="#000000" fill-rule="nonzero" fill-opacity="1" /><path clip-path="url(#clip690)" d="M879.722 27.2059 L887.175 27.2059 L887.175 72.576 L879.722 72.576 L879.722 27.2059 M879.722 9.54393 L887.175 9.54393 L887.175 18.9825 L879.722 18.9825 L879.722 9.54393 Z" fill="#000000" fill-rule="nonzero" fill-opacity="1" /><path clip-path="url(#clip690)" d="M923.391 49.7694 Q914.357 49.7694 910.873 51.8354 Q907.39 53.9013 907.39 58.8839 Q907.39 62.8538 909.982 65.2034 Q912.615 67.5124 917.112 67.5124 Q923.31 67.5124 927.036 63.1374 Q930.804 58.7219 930.804 51.4303 L930.804 49.7694 L923.391 49.7694 M938.257 46.6907 L938.257 72.576 L930.804 72.576 L930.804 65.6895 Q928.252 69.8214 924.444 71.8063 Q920.636 73.7508 915.127 73.7508 Q908.159 73.7508 904.027 69.8619 Q899.936 65.9325 899.936 59.3701 Q899.936 51.7138 905.04 47.825 Q910.185 43.9361 920.352 43.9361 L930.804 43.9361 L930.804 43.2069 Q930.804 38.0623 927.401 35.2672 Q924.039 32.4315 917.922 32.4315 Q914.033 32.4315 910.347 33.3632 Q906.66 34.295 903.258 36.1584 L903.258 29.2718 Q907.349 27.692 911.197 26.9223 Q915.046 26.1121 918.692 26.1121 Q928.535 26.1121 933.396 31.2163 Q938.257 36.3204 938.257 46.6907 Z" fill="#000000" fill-rule="nonzero" fill-opacity="1" /><path clip-path="url(#clip690)" d="M953.61 9.54393 L961.064 9.54393 L961.064 72.576 L953.61 72.576 L953.61 9.54393 Z" fill="#000000" fill-rule="nonzero" fill-opacity="1" /><path clip-path="url(#clip690)" d="M1011.54 18.8205 L1011.54 65.8515 L1021.42 65.8515 Q1033.94 65.8515 1039.73 60.1802 Q1045.57 54.509 1045.57 42.2752 Q1045.57 30.1225 1039.73 24.4918 Q1033.94 18.8205 1021.42 18.8205 L1011.54 18.8205 M1003.36 12.096 L1020.17 12.096 Q1037.75 12.096 1045.97 19.4281 Q1054.19 26.7198 1054.19 42.2752 Q1054.19 57.9117 1045.93 65.2439 Q1037.67 72.576 1020.17 72.576 L1003.36 72.576 L1003.36 12.096 Z" fill="#000000" fill-rule="nonzero" fill-opacity="1" /><path clip-path="url(#clip690)" d="M1066.91 27.2059 L1074.37 27.2059 L1074.37 72.576 L1066.91 72.576 L1066.91 27.2059 M1066.91 9.54393 L1074.37 9.54393 L1074.37 18.9825 L1066.91 18.9825 L1066.91 9.54393 Z" fill="#000000" fill-rule="nonzero" fill-opacity="1" /><path clip-path="url(#clip690)" d="M1118.89 28.5427 L1118.89 35.5912 Q1115.73 33.9709 1112.32 33.1607 Q1108.92 32.3505 1105.28 32.3505 Q1099.73 32.3505 1096.93 34.0519 Q1094.18 35.7533 1094.18 39.156 Q1094.18 41.7486 1096.16 43.2475 Q1098.15 44.7058 1104.14 46.0426 L1106.69 46.6097 Q1114.63 48.3111 1117.96 51.4303 Q1121.32 54.509 1121.32 60.0587 Q1121.32 66.3781 1116.29 70.0644 Q1111.31 73.7508 1102.56 73.7508 Q1098.92 73.7508 1094.95 73.0216 Q1091.02 72.3329 1086.64 70.9151 L1086.64 63.2184 Q1090.77 65.3654 1094.78 66.4591 Q1098.79 67.5124 1102.72 67.5124 Q1107.99 67.5124 1110.83 65.73 Q1113.66 63.9071 1113.66 60.6258 Q1113.66 57.5877 1111.6 55.9673 Q1109.57 54.3469 1102.64 52.8481 L1100.05 52.2405 Q1093.12 50.7821 1090.04 47.7845 Q1086.97 44.7463 1086.97 39.4801 Q1086.97 33.0797 1091.5 29.5959 Q1096.04 26.1121 1104.38 26.1121 Q1108.52 26.1121 1112.16 26.7198 Q1115.81 27.3274 1118.89 28.5427 Z" fill="#000000" fill-rule="nonzero" fill-opacity="1" /><path clip-path="url(#clip690)" d="M1140.56 14.324 L1140.56 27.2059 L1155.91 27.2059 L1155.91 32.9987 L1140.56 32.9987 L1140.56 57.6282 Q1140.56 63.1779 1142.06 64.7578 Q1143.6 66.3376 1148.26 66.3376 L1155.91 66.3376 L1155.91 72.576 L1148.26 72.576 Q1139.63 72.576 1136.35 69.3758 Q1133.07 66.1351 1133.07 57.6282 L1133.07 32.9987 L1127.6 32.9987 L1127.6 27.2059 L1133.07 27.2059 L1133.07 14.324 L1140.56 14.324 Z" fill="#000000" fill-rule="nonzero" fill-opacity="1" /><path clip-path="url(#clip690)" d="M1192.01 34.1734 Q1190.75 33.4443 1189.25 33.1202 Q1187.79 32.7556 1186.01 32.7556 Q1179.69 32.7556 1176.29 36.8875 Q1172.93 40.9789 1172.93 48.6757 L1172.93 72.576 L1165.43 72.576 L1165.43 27.2059 L1172.93 27.2059 L1172.93 34.2544 Q1175.28 30.1225 1179.04 28.1376 Q1182.81 26.1121 1188.2 26.1121 Q1188.97 26.1121 1189.9 26.2337 Q1190.83 26.3147 1191.97 26.5172 L1192.01 34.1734 Z" fill="#000000" fill-rule="nonzero" fill-opacity="1" /><path clip-path="url(#clip690)" d="M1199.82 27.2059 L1207.28 27.2059 L1207.28 72.576 L1199.82 72.576 L1199.82 27.2059 M1199.82 9.54393 L1207.28 9.54393 L1207.28 18.9825 L1199.82 18.9825 L1199.82 9.54393 Z" fill="#000000" fill-rule="nonzero" fill-opacity="1" /><path clip-path="url(#clip690)" d="M1255.44 49.9314 Q1255.44 41.7081 1252.04 37.0496 Q1248.68 32.3505 1242.76 32.3505 Q1236.85 32.3505 1233.45 37.0496 Q1230.08 41.7081 1230.08 49.9314 Q1230.08 58.1548 1233.45 62.8538 Q1236.85 67.5124 1242.76 67.5124 Q1248.68 67.5124 1252.04 62.8538 Q1255.44 58.1548 1255.44 49.9314 M1230.08 34.0924 Q1232.43 30.0415 1236 28.0971 Q1239.6 26.1121 1244.59 26.1121 Q1252.85 26.1121 1258 32.6746 Q1263.18 39.2371 1263.18 49.9314 Q1263.18 60.6258 1258 67.1883 Q1252.85 73.7508 1244.59 73.7508 Q1239.6 73.7508 1236 71.8063 Q1232.43 69.8214 1230.08 65.7705 L1230.08 72.576 L1222.59 72.576 L1222.59 9.54393 L1230.08 9.54393 L1230.08 34.0924 Z" fill="#000000" fill-rule="nonzero" fill-opacity="1" /><path clip-path="url(#clip690)" d="M1274.77 54.671 L1274.77 27.2059 L1282.22 27.2059 L1282.22 54.3874 Q1282.22 60.8284 1284.73 64.0691 Q1287.24 67.2693 1292.27 67.2693 Q1298.3 67.2693 1301.79 63.421 Q1305.31 59.5726 1305.31 52.9291 L1305.31 27.2059 L1312.76 27.2059 L1312.76 72.576 L1305.31 72.576 L1305.31 65.6084 Q1302.6 69.7404 1298.99 71.7658 Q1295.43 73.7508 1290.69 73.7508 Q1282.87 73.7508 1278.82 68.8897 Q1274.77 64.0286 1274.77 54.671 M1293.52 26.1121 L1293.52 26.1121 Z" fill="#000000" fill-rule="nonzero" fill-opacity="1" /><path clip-path="url(#clip690)" d="M1335.49 14.324 L1335.49 27.2059 L1350.84 27.2059 L1350.84 32.9987 L1335.49 32.9987 L1335.49 57.6282 Q1335.49 63.1779 1336.99 64.7578 Q1338.53 66.3376 1343.19 66.3376 L1350.84 66.3376 L1350.84 72.576 L1343.19 72.576 Q1334.56 72.576 1331.28 69.3758 Q1327.99 66.1351 1327.99 57.6282 L1327.99 32.9987 L1322.53 32.9987 L1322.53 27.2059 L1327.99 27.2059 L1327.99 14.324 L1335.49 14.324 Z" fill="#000000" fill-rule="nonzero" fill-opacity="1" /><path clip-path="url(#clip690)" d="M1360.65 27.2059 L1368.1 27.2059 L1368.1 72.576 L1360.65 72.576 L1360.65 27.2059 M1360.65 9.54393 L1368.1 9.54393 L1368.1 18.9825 L1360.65 18.9825 L1360.65 9.54393 Z" fill="#000000" fill-rule="nonzero" fill-opacity="1" /><path clip-path="url(#clip690)" d="M1401.28 32.4315 Q1395.28 32.4315 1391.8 37.1306 Q1388.31 41.7891 1388.31 49.9314 Q1388.31 58.0738 1391.76 62.7728 Q1395.24 67.4314 1401.28 67.4314 Q1407.23 67.4314 1410.71 62.7323 Q1414.2 58.0333 1414.2 49.9314 Q1414.2 41.8701 1410.71 37.1711 Q1407.23 32.4315 1401.28 32.4315 M1401.28 26.1121 Q1411 26.1121 1416.55 32.4315 Q1422.1 38.7509 1422.1 49.9314 Q1422.1 61.0714 1416.55 67.4314 Q1411 73.7508 1401.28 73.7508 Q1391.51 73.7508 1385.96 67.4314 Q1380.45 61.0714 1380.45 49.9314 Q1380.45 38.7509 1385.96 32.4315 Q1391.51 26.1121 1401.28 26.1121 Z" fill="#000000" fill-rule="nonzero" fill-opacity="1" /><path clip-path="url(#clip690)" d="M1472.17 45.1919 L1472.17 72.576 L1464.71 72.576 L1464.71 45.4349 Q1464.71 38.994 1462.2 35.7938 Q1459.69 32.5936 1454.67 32.5936 Q1448.63 32.5936 1445.15 36.4419 Q1441.66 40.2903 1441.66 46.9338 L1441.66 72.576 L1434.17 72.576 L1434.17 27.2059 L1441.66 27.2059 L1441.66 34.2544 Q1444.34 30.163 1447.94 28.1376 Q1451.59 26.1121 1456.33 26.1121 Q1464.15 26.1121 1468.16 30.9732 Q1472.17 35.7938 1472.17 45.1919 Z" fill="#000000" fill-rule="nonzero" fill-opacity="1" /><path clip-path="url(#clip690)" d="M1513.73 12.096 L1548.49 12.096 L1548.49 18.9825 L1521.91 18.9825 L1521.91 36.8065 L1545.89 36.8065 L1545.89 43.6931 L1521.91 43.6931 L1521.91 72.576 L1513.73 72.576 L1513.73 12.096 Z" fill="#000000" fill-rule="nonzero" fill-opacity="1" /><path clip-path="url(#clip690)" d="M1555.82 54.671 L1555.82 27.2059 L1563.27 27.2059 L1563.27 54.3874 Q1563.27 60.8284 1565.78 64.0691 Q1568.29 67.2693 1573.32 67.2693 Q1579.35 67.2693 1582.84 63.421 Q1586.36 59.5726 1586.36 52.9291 L1586.36 27.2059 L1593.82 27.2059 L1593.82 72.576 L1586.36 72.576 L1586.36 65.6084 Q1583.65 69.7404 1580.04 71.7658 Q1576.48 73.7508 1571.74 73.7508 Q1563.92 73.7508 1559.87 68.8897 Q1555.82 64.0286 1555.82 54.671 M1574.57 26.1121 L1574.57 26.1121 Z" fill="#000000" fill-rule="nonzero" fill-opacity="1" /><path clip-path="url(#clip690)" d="M1646.88 45.1919 L1646.88 72.576 L1639.43 72.576 L1639.43 45.4349 Q1639.43 38.994 1636.92 35.7938 Q1634.41 32.5936 1629.38 32.5936 Q1623.35 32.5936 1619.86 36.4419 Q1616.38 40.2903 1616.38 46.9338 L1616.38 72.576 L1608.88 72.576 L1608.88 27.2059 L1616.38 27.2059 L1616.38 34.2544 Q1619.05 30.163 1622.66 28.1376 Q1626.3 26.1121 1631.04 26.1121 Q1638.86 26.1121 1642.87 30.9732 Q1646.88 35.7938 1646.88 45.1919 Z" fill="#000000" fill-rule="nonzero" fill-opacity="1" /><path clip-path="url(#clip690)" d="M1694.4 28.9478 L1694.4 35.9153 Q1691.24 34.1734 1688.04 33.3227 Q1684.88 32.4315 1681.64 32.4315 Q1674.39 32.4315 1670.38 37.0496 Q1666.37 41.6271 1666.37 49.9314 Q1666.37 58.2358 1670.38 62.8538 Q1674.39 67.4314 1681.64 67.4314 Q1684.88 67.4314 1688.04 66.5807 Q1691.24 65.6895 1694.4 63.9476 L1694.4 70.8341 Q1691.28 72.2924 1687.92 73.0216 Q1684.6 73.7508 1680.83 73.7508 Q1670.58 73.7508 1664.54 67.3098 Q1658.51 60.8689 1658.51 49.9314 Q1658.51 38.832 1664.58 32.472 Q1670.7 26.1121 1681.31 26.1121 Q1684.76 26.1121 1688.04 26.8413 Q1691.32 27.5299 1694.4 28.9478 Z" fill="#000000" fill-rule="nonzero" fill-opacity="1" /><path clip-path="url(#clip690)" d="M1714.73 14.324 L1714.73 27.2059 L1730.09 27.2059 L1730.09 32.9987 L1714.73 32.9987 L1714.73 57.6282 Q1714.73 63.1779 1716.23 64.7578 Q1717.77 66.3376 1722.43 66.3376 L1730.09 66.3376 L1730.09 72.576 L1722.43 72.576 Q1713.8 72.576 1710.52 69.3758 Q1707.24 66.1351 1707.24 57.6282 L1707.24 32.9987 L1701.77 32.9987 L1701.77 27.2059 L1707.24 27.2059 L1707.24 14.324 L1714.73 14.324 Z" fill="#000000" fill-rule="nonzero" fill-opacity="1" /><path clip-path="url(#clip690)" d="M1739.89 27.2059 L1747.34 27.2059 L1747.34 72.576 L1739.89 72.576 L1739.89 27.2059 M1739.89 9.54393 L1747.34 9.54393 L1747.34 18.9825 L1739.89 18.9825 L1739.89 9.54393 Z" fill="#000000" fill-rule="nonzero" fill-opacity="1" /><path clip-path="url(#clip690)" d="M1780.52 32.4315 Q1774.53 32.4315 1771.04 37.1306 Q1767.56 41.7891 1767.56 49.9314 Q1767.56 58.0738 1771 62.7728 Q1774.49 67.4314 1780.52 67.4314 Q1786.48 67.4314 1789.96 62.7323 Q1793.44 58.0333 1793.44 49.9314 Q1793.44 41.8701 1789.96 37.1711 Q1786.48 32.4315 1780.52 32.4315 M1780.52 26.1121 Q1790.24 26.1121 1795.79 32.4315 Q1801.34 38.7509 1801.34 49.9314 Q1801.34 61.0714 1795.79 67.4314 Q1790.24 73.7508 1780.52 73.7508 Q1770.76 73.7508 1765.21 67.4314 Q1759.7 61.0714 1759.7 49.9314 Q1759.7 38.7509 1765.21 32.4315 Q1770.76 26.1121 1780.52 26.1121 Z" fill="#000000" fill-rule="nonzero" fill-opacity="1" /><path clip-path="url(#clip690)" d="M1851.41 45.1919 L1851.41 72.576 L1843.96 72.576 L1843.96 45.4349 Q1843.96 38.994 1841.45 35.7938 Q1838.94 32.5936 1833.91 32.5936 Q1827.88 32.5936 1824.39 36.4419 Q1820.91 40.2903 1820.91 46.9338 L1820.91 72.576 L1813.41 72.576 L1813.41 27.2059 L1820.91 27.2059 L1820.91 34.2544 Q1823.58 30.163 1827.19 28.1376 Q1830.83 26.1121 1835.57 26.1121 Q1843.39 26.1121 1847.4 30.9732 Q1851.41 35.7938 1851.41 45.1919 Z" fill="#000000" fill-rule="nonzero" fill-opacity="1" /><polyline clip-path="url(#clip692)" style="stroke:#009af9; stroke-linecap:round; stroke-linejoin:round; stroke-width:8; stroke-opacity:1; fill:none" points="279.759,1386.4 300.088,1386.4 320.418,1386.4 340.747,1386.4 361.077,1386.4 381.406,1386.4 401.736,1386.4 422.065,1386.4 442.395,1386.4 462.724,1386.4 483.054,1386.4 503.383,1386.4 523.712,1386.4 544.042,1386.4 564.371,1386.4 584.701,1386.4 605.03,1386.4 625.36,1386.4 645.689,1386.4 666.019,1386.4 686.348,1386.4 706.678,1386.4 727.007,1386.4 747.337,1386.4 767.666,1386.4 787.996,1386.4 808.325,1386.4 828.655,1386.4 848.984,1386.4 869.314,1386.4 889.643,1386.4 909.973,1386.4 930.302,1386.4 950.632,1386.4 970.961,1386.4 991.291,1386.4 1011.62,1386.4 1031.95,1386.4 1052.28,1386.4 1072.61,1386.4 1092.94,1386.4 1113.27,1386.4 1133.6,1311.56 1153.93,1386.4 1174.26,1249.87 1194.59,1125.21 1214.91,573.654 1235.24,607.514 1255.57,639.3 1275.9,282.987 1296.23,167.231 1316.56,265.085 1336.89,160.256 1357.22,583.498 1377.55,658.203 1397.88,420.886 1418.21,539.454 1438.54,773.091 1458.87,912.382 1479.2,699.074 1499.53,832.405 1519.86,921.757 1540.19,1109.54 1560.52,1017.62 1580.85,833.997 1601.17,1071.3 1621.5,1019.57 1641.83,1119.37 1662.16,1098.3 1682.49,1162.5 1702.82,1032.81 1723.15,1095.52 1743.48,1180.65 1763.81,1111.14 1784.14,1045.41 1804.47,1220.39 1824.8,1132.3 1845.13,1093.8 1865.46,859.897 1885.79,1065.56 1906.12,1094.34 1926.45,1060.76 1946.78,1167.92 1967.11,979.229 1987.44,1064.54 2007.76,813.13 2028.09,1043.12 2048.42,997.947 2068.75,937.636 2089.08,981.361 2109.41,1006.77 2129.74,708.232 2150.07,754.415 2170.4,628.69 2190.73,1098.78 2211.06,823.141 2231.39,805.721 2251.72,931.336 2272.05,801.195 2292.38,840.208 "/>
</svg>
